<svg width="128" height="182" viewBox="0 0 128 182" fill="none" xmlns="http://www.w3.org/2000/svg">
  <!-- 배경 그라데이션 -->
  <defs>
    <linearGradient id="weekendGroupGradient" x1="0%" y1="0%" x2="100%" y2="100%">
      <stop offset="0%" style="stop-color:#ECFDF5;stop-opacity:1" />
      <stop offset="100%" style="stop-color:#D1FAE5;stop-opacity:1" />
    </linearGradient>
    <linearGradient id="weekendGroupOverlay" x1="0%" y1="100%" x2="0%" y2="80%">
      <stop offset="0%" style="stop-color:#10B981;stop-opacity:0.7" />
      <stop offset="100%" style="stop-color:#10B981;stop-opacity:0" />
    </linearGradient>
  </defs>
  
  <!-- 메인 배경 -->
  <rect width="128" height="182" rx="12" fill="url(#weekendGroupGradient)"/>
  
  <!-- 주말 뱃지 -->
  <rect x="10" y="10" width="35" height="16" rx="8" fill="#8B5CF6"/>
  <text x="27.5" y="21" fill="white" font-family="Arial, sans-serif" font-size="9" font-weight="bold" text-anchor="middle">주말</text>
  
  <!-- 그룹 러너들 -->
  <g transform="translate(30, 40)">
    <!-- 러너 1 -->
    <circle cx="6" cy="5" r="2.5" fill="#10B981"/>
    <path d="M4 8 L8 8 L7.5 18 L4.5 18 Z" fill="#10B981"/>
    <path d="M3 14 L5.5 12 L8 14 L10.5 12" stroke="#10B981" stroke-width="1.5" fill="none"/>
  </g>
  
  <g transform="translate(50, 35)">
    <!-- 러너 2 -->
    <circle cx="6" cy="5" r="2.5" fill="#10B981"/>
    <path d="M4 8 L8 8 L7.5 18 L4.5 18 Z" fill="#10B981"/>
    <path d="M3 14 L5.5 12 L8 14 L10.5 12" stroke="#10B981" stroke-width="1.5" fill="none"/>
  </g>
  
  <g transform="translate(70, 42)">
    <!-- 러너 3 -->
    <circle cx="6" cy="5" r="2.5" fill="#10B981"/>
    <path d="M4 8 L8 8 L7.5 18 L4.5 18 Z" fill="#10B981"/>
    <path d="M3 14 L5.5 12 L8 14 L10.5 12" stroke="#10B981" stroke-width="1.5" fill="none"/>
  </g>
  
  <!-- 그룹 러닝 트랙 -->
  <ellipse cx="64" cy="70" rx="45" ry="25" fill="none" stroke="rgba(16,185,129,0.4)" stroke-width="2" stroke-dasharray="6,3"/>
  
  <!-- 카페 건물 -->
  <rect x="25" y="100" width="78" height="45" rx="6" fill="rgba(16,185,129,0.8)"/>
  <rect x="30" y="105" width="18" height="15" rx="2" fill="rgba(255,255,255,0.9)"/>
  <rect x="52" y="105" width="18" height="15" rx="2" fill="rgba(255,255,255,0.9)"/>
  <rect x="74" y="105" width="18" height="15" rx="2" fill="rgba(255,255,255,0.9)"/>
  
  <!-- 카페 지붕 -->
  <path d="M20 100 L64 80 L108 100 Z" fill="#059669"/>
  
  <!-- 카페 간판 -->
  <rect x="42" y="85" width="44" height="12" rx="6" fill="rgba(255,255,255,0.9)"/>
  <text x="64" y="93" fill="#10B981" font-family="Arial, sans-serif" font-size="8" font-weight="bold" text-anchor="middle">GROUP CAFE</text>
  
  <!-- 카페 문 -->
  <rect x="54" y="125" width="20" height="20" rx="2" fill="#047857"/>
  <circle cx="70" cy="135" r="1" fill="rgba(255,255,255,0.8)"/>
  
  <!-- 하단 오버레이 -->
  <rect x="0" y="145" width="128" height="37" fill="url(#weekendGroupOverlay)"/>
  
  <!-- 투표 수 -->
  <text x="10" y="165" fill="white" font-family="Arial, sans-serif" font-size="11" font-weight="bold">156표</text>
  
  <!-- 그룹 아이콘 -->
  <g transform="translate(95, 20)">
    <circle cx="4" cy="4" r="2" fill="rgba(16,185,129,0.6)"/>
    <circle cx="10" cy="4" r="2" fill="rgba(16,185,129,0.5)"/>
    <circle cx="16" cy="4" r="2" fill="rgba(16,185,129,0.6)"/>
    <circle cx="7" cy="9" r="2" fill="rgba(16,185,129,0.4)"/>
    <circle cx="13" cy="9" r="2" fill="rgba(16,185,129,0.5)"/>
  </g>
</svg>
