<svg width="128" height="182" viewBox="0 0 128 182" fill="none" xmlns="http://www.w3.org/2000/svg">
  <!-- 배경 그라데이션 -->
  <defs>
    <linearGradient id="newCourseGradient" x1="0%" y1="0%" x2="100%" y2="100%">
      <stop offset="0%" style="stop-color:#FEF3C7;stop-opacity:1" />
      <stop offset="100%" style="stop-color:#FDE68A;stop-opacity:1" />
    </linearGradient>
    <linearGradient id="newCourseOverlay" x1="0%" y1="100%" x2="0%" y2="80%">
      <stop offset="0%" style="stop-color:#F59E0B;stop-opacity:0.7" />
      <stop offset="100%" style="stop-color:#F59E0B;stop-opacity:0" />
    </linearGradient>
  </defs>
  
  <!-- 메인 배경 -->
  <rect width="128" height="182" rx="12" fill="url(#newCourseGradient)"/>
  
  <!-- NEW 뱃지 -->
  <rect x="10" y="10" width="30" height="16" rx="8" fill="#DC2626"/>
  <text x="25" y="21" fill="white" font-family="Arial, sans-serif" font-size="10" font-weight="bold" text-anchor="middle">NEW</text>
  
  <!-- 러닝 트랙 -->
  <path d="M20 50 Q64 30 108 50 Q108 70 108 90 Q108 110 64 130 Q20 110 20 90 Q20 70 20 50" 
        fill="none" stroke="rgba(245,158,11,0.6)" stroke-width="3" stroke-dasharray="8,4"/>
  
  <!-- 러너 아이콘 -->
  <g transform="translate(55, 70)">
    <circle cx="9" cy="6" r="3" fill="#F59E0B"/>
    <path d="M6 10 L12 10 L11 22 L7 22 Z" fill="#F59E0B"/>
    <path d="M5 16 L8 14 L11 16 L14 14" stroke="#F59E0B" stroke-width="2" fill="none"/>
  </g>
  
  <!-- 카페 건물 -->
  <rect x="25" y="100" width="78" height="45" rx="6" fill="rgba(245,158,11,0.8)"/>
  <rect x="30" y="105" width="18" height="15" rx="2" fill="rgba(255,255,255,0.9)"/>
  <rect x="52" y="105" width="18" height="15" rx="2" fill="rgba(255,255,255,0.9)"/>
  <rect x="74" y="105" width="18" height="15" rx="2" fill="rgba(255,255,255,0.9)"/>
  
  <!-- 카페 지붕 -->
  <path d="M20 100 L64 80 L108 100 Z" fill="#D97706"/>
  
  <!-- 카페 간판 -->
  <rect x="45" y="85" width="38" height="12" rx="6" fill="rgba(255,255,255,0.9)"/>
  <text x="64" y="93" fill="#F59E0B" font-family="Arial, sans-serif" font-size="9" font-weight="bold" text-anchor="middle">RUNNER CAFE</text>
  
  <!-- 카페 문 -->
  <rect x="54" y="125" width="20" height="20" rx="2" fill="#B45309"/>
  <circle cx="70" cy="135" r="1" fill="rgba(255,255,255,0.8)"/>
  
  <!-- 하단 오버레이 -->
  <rect x="0" y="145" width="128" height="37" fill="url(#newCourseOverlay)"/>
  
  <!-- 투표 수 -->
  <text x="10" y="165" fill="white" font-family="Arial, sans-serif" font-size="11" font-weight="bold">234표</text>
  
  <!-- 장식 요소 -->
  <circle cx="100" cy="30" r="3" fill="rgba(245,158,11,0.4)"/>
  <circle cx="110" cy="40" r="2" fill="rgba(245,158,11,0.3)"/>
  <circle cx="95" cy="50" r="1.5" fill="rgba(245,158,11,0.5)"/>
</svg>
