<svg width="375" height="144" viewBox="0 0 375 144" fill="none" xmlns="http://www.w3.org/2000/svg">
<defs>
  <linearGradient id="shareGrad" x1="0%" y1="0%" x2="100%" y2="0%">
    <stop offset="0%" style="stop-color:#DC2626;stop-opacity:1" />
    <stop offset="100%" style="stop-color:#EF4444;stop-opacity:1" />
  </linearGradient>
</defs>
<rect width="375" height="144" rx="12" fill="url(#shareGrad)"/>
<!-- 배경 소셜 아이콘들 -->
<g transform="translate(280, 30)" opacity="0.2">
  <circle cx="10" cy="10" r="8" fill="white"/>
  <text x="10" y="14" text-anchor="middle" fill="#DC2626" font-size="8" font-weight="bold">f</text>
</g>
<g transform="translate(310, 50)" opacity="0.2">
  <circle cx="10" cy="10" r="8" fill="white"/>
  <text x="10" y="14" text-anchor="middle" fill="#DC2626" font-size="8" font-weight="bold">@</text>
</g>
<g transform="translate(320, 90)" opacity="0.2">
  <circle cx="10" cy="10" r="8" fill="white"/>
  <text x="10" y="14" text-anchor="middle" fill="#DC2626" font-size="8" font-weight="bold">📷</text>
</g>
<!-- 공유 아이콘 -->
<g transform="translate(300, 60)">
  <rect x="0" y="2" width="28" height="20" rx="4" fill="white" opacity="0.2"/>
  <circle cx="8" cy="12" r="3" fill="white"/>
  <path d="M14 8L24 8" stroke="white" stroke-width="1.5" stroke-linecap="round"/>
  <path d="M14 12L24 12" stroke="white" stroke-width="1.5" stroke-linecap="round"/>
  <path d="M14 16L24 16" stroke="white" stroke-width="1.5" stroke-linecap="round"/>
</g>
<!-- 텍스트 -->
<text x="30" y="50" fill="white" font-family="Inter, sans-serif" font-weight="700" font-size="20">러닝 기록 공유</text>
<text x="30" y="80" fill="white" font-family="Inter, sans-serif" font-weight="400" font-size="14" opacity="0.9">친구들과 러닝 성과를 자랑하세요</text>
<!-- 통계 표시 -->
<g transform="translate(30, 100)">
  <rect width="80" height="16" rx="8" fill="white" opacity="0.2"/>
  <text x="40" y="12" text-anchor="middle" fill="white" font-family="Inter, sans-serif" font-size="10" font-weight="600">🏃‍♂️ 5.2km</text>
  <rect x="90" y="0" width="60" height="16" rx="8" fill="white" opacity="0.2"/>
  <text x="120" y="12" text-anchor="middle" fill="white" font-family="Inter, sans-serif" font-size="10" font-weight="600">⏱️ 25:30</text>
</g>
</svg>
